# xmcd
#
# Track frame offsets: 
#        150
#        16127
#        31577
#        53504
#        71764
#        91448
#        112493
#        130010
#        147860
#        166718
#        183597
#        196235
#        215675
#        240107
#        257247
#        273344
#        290239
#        314146
#        331949
#
# Disc length: 4653 seconds
#
# Revision: 0
# Processed by: cddbd v1.5.2PL0 Copyright (c) Steve Scherf et al.
# Submitted via: ExactAudioCopy v1.0b1
#
DISCID=1a122b13
DTITLE=Various Artist - Soundi CD 2011
DYEAR=2011
DGENRE=Rock
TTITLE0=Barbe-Q-Barbies - Spell
TTITLE1=CMX - Kappaleina
TTITLE2=Teräsbetoni - Uudestisyntynyt
TTITLE3=Von Hertzen Brothers - Miracle
TTITLE4=Tuomari Nurmio - Rakkautta rahalla et saa
TTITLE5=Ismo Alanko Teholla - Onnellisuus
TTITLE6=Jukka Takalo - Jeesukseksi ristille
TTITLE7=Viikate - Hautajaissydän (feat. Topi Sorsakoski)
TTITLE8=The Blanko - You and I
TTITLE9=Disco Ensemble - Lefty
TTITLE10=Paleface - Helsinki - Shangri-La
TTITLE11=Jukka Poika - Ikirouta
TTITLE12=Delay Trees - Tarantula holding on
TTITLE13=Matthau Mikojan - Plastic Trays
TTITLE14=Mokoma - Huomenhaamu
TTITLE15=Radiopuhelimet - Globaali Anaali
TTITLE16=The Mama King - Mama King
TTITLE17=Reckless Love - Back to paradise
TTITLE18=Minä ja Ville Ahonen - Sano
EXTD=
EXTT0=
EXTT1=
EXTT2=
EXTT3=
EXTT4=
EXTT5=
EXTT6=
EXTT7=
EXTT8=
EXTT9=
EXTT10=
EXTT11=
EXTT12=
EXTT13=
EXTT14=
EXTT15=
EXTT16=
EXTT17=
EXTT18=
PLAYORDER=
